<svg width="134" height="24" viewBox="0 0 134 24" fill="none" xmlns="http://www.w3.org/2000/svg">
<path d="M10.7 23.36C15.89 23.36 19.91 20.3 20.75 15.68H16.76C16.04 18.11 13.76 19.67 10.79 19.67C6.77 19.67 4.19 16.67 4.19 12.02C4.19 7.34 6.74 4.4 10.79 4.4C13.7 4.4 15.89 5.9 16.64 8.45H20.69C19.94 3.74 16.07 0.709999 10.88 0.709999C4.46 0.709999 0.17 5.24 0.17 12.05C0.17 18.92 4.31 23.36 10.7 23.36ZM26.5672 23V14.9C26.5672 12.68 27.9172 11.06 30.2272 11.06C32.0872 11.06 33.3172 12.26 33.3172 14.75V23H36.9772V13.88C36.9772 10.04 35.0572 7.73 31.3972 7.73C29.2672 7.73 27.5272 8.66 26.5972 10.1V0.679999H22.9072V23H26.5672ZM44.3832 23.39C46.6932 23.39 48.7032 22.34 49.3332 20.81L49.6032 23H52.8132V14C52.8132 9.89 50.3532 7.73 46.3632 7.73C42.3432 7.73 39.7032 9.83 39.7032 13.04H42.8232C42.8232 11.48 44.0232 10.58 46.1832 10.58C48.0432 10.58 49.2432 11.39 49.2432 13.4V13.73L44.8032 14.06C41.2932 14.33 39.3132 16.04 39.3132 18.77C39.3132 21.56 41.2332 23.39 44.3832 23.39ZM45.5832 20.63C43.9332 20.63 43.0332 19.97 43.0332 18.62C43.0332 17.42 43.9032 16.67 46.1832 16.46L49.2732 16.22V17C49.2732 19.28 47.8332 20.63 45.5832 20.63ZM60.6437 23V11.24H63.5237V8.18H60.6437V3.56H56.9837V8.18H54.1337V11.24H56.9837V23H60.6437ZM64.059 18.5C64.059 21.41 66.399 23.39 70.089 23.39C73.749 23.39 76.299 21.53 76.299 18.53C76.299 16.25 75.039 15.11 72.549 14.54L69.879 13.91C68.619 13.61 67.959 13.07 67.959 12.23C67.959 11.12 68.799 10.46 70.239 10.46C71.649 10.46 72.489 11.27 72.519 12.53H75.999C75.969 9.65 73.719 7.73 70.389 7.73C66.969 7.73 64.509 9.47 64.509 12.38C64.509 14.75 65.799 16.01 68.469 16.61L71.139 17.24C72.459 17.54 72.849 18.08 72.849 18.83C72.849 19.91 71.919 20.6 70.209 20.6C68.529 20.6 67.569 19.79 67.539 18.5H64.059ZM77.6157 15.56C77.6157 20.18 80.9457 23.36 85.5357 23.36C90.1257 23.36 93.4557 20.18 93.4557 15.56C93.4557 10.94 90.1257 7.76 85.5357 7.76C80.9457 7.76 77.6157 10.94 77.6157 15.56ZM81.2757 15.56C81.2757 12.86 83.0157 11.03 85.5357 11.03C88.0557 11.03 89.7957 12.86 89.7957 15.56C89.7957 18.26 88.0557 20.09 85.5357 20.09C83.0157 20.09 81.2757 18.26 81.2757 15.56ZM99.4168 23V15.02C99.4168 12.62 100.797 11.06 103.047 11.06C104.937 11.06 106.167 12.26 106.167 14.75V23H109.827V13.88C109.827 10.04 107.907 7.73 104.187 7.73C102.177 7.73 100.377 8.6 99.4468 10.1L99.1468 8.18H95.7568V23H99.4168ZM114.653 5.21C115.853 5.21 116.843 4.22 116.843 2.99C116.843 1.76 115.853 0.8 114.653 0.8C113.393 0.8 112.403 1.76 112.403 2.99C112.403 4.22 113.393 5.21 114.653 5.21ZM112.823 23H116.483V8.18H112.823V23ZM118.794 15.56C118.794 20.27 121.734 23.39 126.234 23.39C130.104 23.39 132.984 21.02 133.434 17.57H129.744C129.354 19.19 128.064 20.09 126.234 20.09C123.894 20.09 122.454 18.35 122.454 15.56C122.454 12.77 124.014 11 126.354 11C128.094 11 129.324 11.87 129.744 13.55H133.404C133.014 9.98 130.254 7.73 126.204 7.73C121.824 7.73 118.794 10.97 118.794 15.56Z" fill="url(#paint0_linear_241_913)"/>
<defs>
<linearGradient id="paint0_linear_241_913" x1="-29.1154" y1="12.3846" x2="142.846" y2="12.3846" gradientUnits="userSpaceOnUse">
<stop stop-color="#00CDFA"/>
<stop offset="0.501451" stop-color="#9058FF"/>
<stop offset="1" stop-color="#FF76DF"/>
</linearGradient>
</defs>
</svg>
