<svg width="46" height="46" viewBox="0 0 46 46" fill="none" xmlns="http://www.w3.org/2000/svg">
<circle cx="23" cy="23" r="23" fill="#E9E9FE"/>
<path d="M19.6906 31.2499H15.5C15.3011 31.2499 15.1103 31.1709 14.9697 31.0302C14.829 30.8896 14.75 30.6988 14.75 30.4999V26.3093C14.7497 26.2119 14.7685 26.1154 14.8055 26.0253C14.8425 25.9352 14.8969 25.8533 14.9656 25.7843L26.2156 14.5343C26.2854 14.4634 26.3686 14.4072 26.4603 14.3687C26.5521 14.3303 26.6505 14.3105 26.75 14.3105C26.8495 14.3105 26.9479 14.3303 27.0397 14.3687C27.1314 14.4072 27.2146 14.4634 27.2844 14.5343L31.4656 18.7155C31.5365 18.7853 31.5928 18.8685 31.6312 18.9603C31.6696 19.052 31.6894 19.1505 31.6894 19.2499C31.6894 19.3494 31.6696 19.4478 31.6312 19.5396C31.5928 19.6313 31.5365 19.7145 31.4656 19.7843L20.2156 31.0343C20.1466 31.103 20.0647 31.1574 19.9746 31.1944C19.8845 31.2314 19.788 31.2503 19.6906 31.2499V31.2499Z" stroke="#705CF6" stroke-width="1.6" stroke-linecap="round" stroke-linejoin="round"/>
<path d="M23.75 17L29 22.25" stroke="#705CF6" stroke-width="1.6" stroke-linecap="round" stroke-linejoin="round"/>
</svg>
