<svg width="24" height="24" viewBox="0 0 24 24" fill="none" xmlns="http://www.w3.org/2000/svg">
<circle cx="11.8486" cy="12.1985" r="9" fill="white"/>
<path d="M12 2.25C10.0716 2.25 8.18657 2.82183 6.58319 3.89317C4.97982 4.96451 3.73013 6.48726 2.99218 8.26884C2.25422 10.0504 2.06114 12.0108 2.43735 13.9021C2.81355 15.7934 3.74215 17.5307 5.10571 18.8943C6.46928 20.2579 8.20656 21.1865 10.0979 21.5627C11.9892 21.9389 13.9496 21.7458 15.7312 21.0078C17.5127 20.2699 19.0355 19.0202 20.1068 17.4168C21.1782 15.8134 21.75 13.9284 21.75 12C21.745 9.41566 20.7162 6.93859 18.8888 5.11118C17.0614 3.28378 14.5843 2.25496 12 2.25ZM15.4125 12.6281L10.9125 15.6281C10.7884 15.7049 10.6459 15.747 10.5 15.75C10.3763 15.7499 10.2543 15.721 10.1438 15.6656C10.0238 15.6009 9.92384 15.5047 9.85447 15.3875C9.7851 15.2702 9.74898 15.1363 9.75 15V9C9.74898 8.86375 9.7851 8.72979 9.85447 8.61252C9.92384 8.49525 10.0238 8.39909 10.1438 8.33438C10.2641 8.27343 10.3983 8.24485 10.5331 8.25142C10.6679 8.258 10.7986 8.29951 10.9125 8.37188L15.4125 11.3719C15.517 11.44 15.6028 11.5332 15.6622 11.6428C15.7216 11.7525 15.7527 11.8753 15.7527 12C15.7527 12.1247 15.7216 12.2475 15.6622 12.3572C15.6028 12.4668 15.517 12.56 15.4125 12.6281Z" fill="#705CF6"/>
</svg>
